<mxGraphModel dx="1000" dy="1000" grid="1" gridSize="10" guides="1" tooltips="1" connect="1" arrows="1" fold="1" page="1" pageScale="1" pageWidth="827" pageHeight="1169" math="0" shadow="0">
  <root>
    <mxCell id="0" />
    <mxCell id="1" parent="0" />
    <!-- 开始节点（椭圆形） -->
    <mxCell id="2" value="开始" style="ellipse;whiteSpace=wrap;html=1;fillColor=#C0E0F0;" vertex="1" parent="1">
      <mxGeometry x="100" y="100" width="80" height="80" as="geometry"/>
    </mxCell>
    <!-- 处理节点（矩形带圆角） -->
    <mxCell id="3" value="处理" style="rounded=1;whiteSpace=wrap;html=1;fillColor=#D5E8D4;" vertex="1" parent="1">
      <mxGeometry x="300" y="100" width="120" height="60" as="geometry"/>
    </mxCell>
    <!-- 结束节点（椭圆形） -->
    <mxCell id="4" value="结束" style="ellipse;whiteSpace=wrap;html=1;fillColor=#F8CECC;" vertex="1" parent="1">
      <mxGeometry x="500" y="100" width="80" height="80" as="geometry"/>
    </mxCell>
    <!-- 从开始到处理的连线 -->
    <mxCell id="5" style="edgeStyle=orthogonalEdgeStyle;rounded=0;orthogonalLoop=1;jettySize=auto;html=1;exitX=1;exitY=0.5;exitPerimeter=1;entryX=0;entryY=0.5;entryPerimeter=1;" edge="1" parent="1" source="2" target="3">
      <mxGeometry relative="1" as="geometry"/>
    </mxCell>
    <!-- 从处理到结束的连线 -->
    <mxCell id="6" style="edgeStyle=orthogonalEdgeStyle;rounded=0;orthogonalLoop=1;jettySize=auto;html=1;exitX=1;exitY=0.5;exitPerimeter=1;entryX=0;entryY=0.5;entryPerimeter=1;" edge="1" parent="1" source="3" target="4">
      <mxGeometry relative="1" as="geometry"/>
    </mxCell>
  </root>
</mxGraphModel>
